<svg id="Capa_1" enable-background="new 0 0 512 512" height="512" viewBox="0 0 512 512" width="512" xmlns="http://www.w3.org/2000/svg" xmlns:xlink="http://www.w3.org/1999/xlink"><linearGradient id="SVGID_1_" gradientTransform="matrix(1 0 0 -1 0 512)" gradientUnits="userSpaceOnUse" x1="4.439" x2="474.703" y1="4.439" y2="474.703"><stop offset="0" stop-color="#5558ff"/><stop offset="1" stop-color="#00c0ff"/></linearGradient><g><path d="m495.917 58.511-42.427-42.427c-21.445-21.445-56.337-21.445-77.782 0l-296.965 296.965c-1.349 1.349-2.428 2.942-3.179 4.696l-74.305 173.299c-5.337 12.447 7.25 25.034 19.697 19.697l173.3-74.305c1.753-.752 3.347-1.831 4.696-3.18l296.965-296.965c21.444-21.443 21.444-56.336 0-77.78zm-385.354 265.145 233.326-233.325 77.782 77.782-233.326 233.325zm-16.156 26.27 67.668 67.668-118.458 50.791zm380.296-234.847-31.82 31.82-77.782-77.782 31.82-31.82c9.748-9.748 25.608-9.748 35.355 0l42.427 42.426c9.748 9.749 9.748 25.609 0 35.356z" fill="url(#SVGID_1_)"/></g></svg>