<svg id="Capa_1" enable-background="new 0 0 512 512" height="512" viewBox="0 0 512 512" width="512" xmlns="http://www.w3.org/2000/svg" xmlns:xlink="http://www.w3.org/1999/xlink"><linearGradient id="SVGID_1_" gradientUnits="userSpaceOnUse" x1="256" x2="256" y1="466" y2="46"><stop offset="0" stop-color="#fd5900"/><stop offset="1" stop-color="#ffde00"/></linearGradient><linearGradient id="SVGID_2_" gradientUnits="userSpaceOnUse" x1="256" x2="256" y1="436" y2="46"><stop offset="0" stop-color="#ffe59a"/><stop offset="1" stop-color="#ffffd5"/></linearGradient><g><g><g><path d="m226 46h-45l-15 30-15-30h-46c-8.291 0-15 6.709-15 15v120h151v-120c0-8.291-6.709-15-15-15zm196 15c0-8.291-6.709-15-15-15h-46l-15 30-15-30h-45c-8.291 0-15 6.709-15 15v120h151zm-196 165h-45l-15 30-15-30h-46c-8.291 0-15 6.709-15 15v120h151v-120c0-8.291-6.709-15-15-15zm196 15c0-8.291-6.709-15-15-15h-46l-15 30-15-30h-45c-8.291 0-15 6.709-15 15v120h151zm75 195h-15l-16.026-15-13.974 15h-15c-8.291 0-15 6.709-15 15s6.709 15 15 15h60c8.291 0 15-6.709 15-15s-6.709-15-15-15zm-422 0h-15l-18.079-15-11.921 15h-15c-8.291 0-15 6.709-15 15s6.709 15 15 15h60c8.291 0 15-6.709 15-15s-6.709-15-15-15z" fill="url(#SVGID_1_)"/></g></g><g><g><path d="m166 106c8.291 0 15-6.709 15-15v-45h-30v45c0 8.291 6.709 15 15 15zm180 0c8.291 0 15-6.709 15-15v-45h-30v45c0 8.291 6.709 15 15 15zm-180 180c8.291 0 15-6.709 15-15v-45h-30v45c0 8.291 6.709 15 15 15zm180 0c8.291 0 15-6.709 15-15v-45h-30v45c0 8.291 6.709 15 15 15zm121-240c-8.291 0-15 6.709-15 15v105h-392v-105c0-8.291-6.709-15-15-15s-15 6.709-15 15v375h30v-60h392v60h30c0-68.745 0-267.753 0-375 0-8.291-6.709-15-15-15zm-15 300h-392v-150h392z" fill="url(#SVGID_2_)"/></g></g></g></svg>