<svg id="Capa_1" enable-background="new 0 0 511.996 511.996" height="512" viewBox="0 0 511.996 511.996" width="512" xmlns="http://www.w3.org/2000/svg" xmlns:xlink="http://www.w3.org/1999/xlink"><linearGradient id="SVGID_1_" gradientUnits="userSpaceOnUse" x1="255.998" x2="255.998" y1="511.996" y2="0"><stop offset="0" stop-color="#a93aff"/><stop offset="1" stop-color="#ff81ff"/></linearGradient><linearGradient id="SVGID_2_" gradientUnits="userSpaceOnUse" x1="255.998" x2="255.998" y1="390.996" y2="120.996"><stop offset="0" stop-color="#ffbef9"/><stop offset="1" stop-color="#fff1ff"/></linearGradient><g><g><g><path d="m504.952 153.281-241-151c-4.867-3.042-11.041-3.042-15.908 0l-241 151c-5.669 3.545-8.306 10.415-6.46 16.846s7.72 10.869 14.414 10.869h15v316c0 8.284 6.716 15 15 15h30c8.284 0 15-6.716 15-15v-226l31-15h270l31 15v226c0 8.284 6.716 15 15 15h30c8.284 0 15-6.716 15-15v-316h15c6.694 0 12.568-4.438 14.414-10.869s-.791-13.301-6.46-16.846zm-158.954 147.715h-45l-30 30h-30l-30-30h-45c-8.291 0-15 6.709-15 15v181c0 8.291 6.709 15 15 15h180c8.291 0 15-6.709 15-15v-181c0-8.291-6.709-15-15-15z" fill="url(#SVGID_1_)"/></g></g><g><g><path d="m195.998 150.996h120c8.291 0 15-6.709 15-15s-6.709-15-15-15h-120c-8.291 0-15 6.709-15 15s6.709 15 15 15zm211 60h-302c-8.284 0-15 6.714-15 15v45h332v-45c0-8.286-6.716-15-15-15zm-196 165c0 8.291 6.709 15 15 15h60c8.291 0 15-6.709 15-15v-75h-90z" fill="url(#SVGID_2_)"/></g></g></g></svg>